<?xml version="1.0" standalone="no"?>
<!DOCTYPE svg PUBLIC "-//W3C//DTD SVG 20010904//EN"
 "http://www.w3.org/TR/2001/REC-SVG-20010904/DTD/svg10.dtd">
<svg version="1.0" xmlns="http://www.w3.org/2000/svg"
 width="260.000000pt" height="260.000000pt" viewBox="0 0 260.000000 260.000000"
 preserveAspectRatio="xMidYMid meet">
<metadata>
Created by potrace 1.14, written by Peter Selinger 2001-2017
</metadata>
<g transform="translate(0.000000,260.000000) scale(0.100000,-0.100000)"
fill="#000000" stroke="none">
<path d="M1440 2357 c-107 -62 -272 -157 -367 -211 l-172 -99 -3 -119 -3 -119
-200 -115 c-110 -64 -230 -133 -267 -155 -38 -21 -101 -58 -140 -80 -40 -23
-75 -44 -78 -46 -3 -2 -5 -194 -5 -426 0 -409 0 -422 20 -443 11 -12 144 -92
295 -179 151 -87 309 -178 350 -202 41 -24 79 -43 83 -43 5 0 175 96 378 213
l369 212 0 117 0 117 93 54 c50 29 207 120 347 201 l255 147 -1 427 c-1 235
-2 430 -3 433 -1 5 -118 76 -256 154 -22 13 -138 80 -258 149 -120 69 -224
126 -230 126 -7 0 -100 -51 -207 -113z m526 -197 c165 -94 303 -175 308 -180
8 -8 13 -727 5 -734 -2 -2 -145 -85 -318 -184 l-313 -181 -142 80 c-77 45
-157 90 -176 101 -19 11 -53 31 -75 45 l-40 25 0 81 c0 94 -17 138 -73 195
-133 133 -363 85 -437 -92 -40 -96 -8 -225 73 -296 97 -86 238 -91 340 -14 40
31 13 42 272 -109 l195 -113 3 -85 3 -84 -163 -94 c-90 -52 -232 -134 -315
-183 -84 -48 -156 -88 -159 -88 -4 0 -39 19 -78 41 -39 23 -84 49 -101 59
-406 233 -455 263 -456 284 -1 22 -1 656 0 691 1 20 32 42 156 110 28 16 79
45 114 67 34 21 64 38 66 38 1 0 69 38 150 85 l148 86 226 -130 c124 -72 225
-136 223 -143 -9 -32 -2 -113 13 -157 59 -180 304 -233 437 -96 51 53 71 98
76 173 10 144 -90 263 -234 278 -75 8 -131 -7 -189 -51 l-45 -35 -223 129
-222 129 -2 85 -2 86 122 69 c67 39 208 120 312 181 105 61 197 109 206 107
10 -2 151 -81 315 -176z m-234 -649 c14 -5 39 -27 55 -47 22 -30 28 -48 28
-90 0 -59 -20 -94 -75 -131 -117 -80 -273 57 -216 190 35 82 118 113 208 78z
m-709 -156 c71 -34 102 -123 69 -197 -48 -110 -193 -123 -266 -25 -30 40 -29
130 1 173 42 59 130 81 196 49z"/>
</g>
</svg>
